# xmcd CD database file
#
# Track frame offsets:
#	150
#	32355
#	62025
#	85837
#	98010
#	124470
#	138961
#	160230
#	185752
#	204525
#	235687
#	255312
#
# Disc length: 3730 seconds
#
# Revision: 1
# Processed by: cddbd v1.5PL3 Copyright (c) Steve Scherf et al.
# Submitted via: CDex 1.50beta9
#
DISCID=9a0e900c
DTITLE=Nuijamiehet - Nuijamiehet
DYEAR=2000
DGENRE=Jazz
TTITLE0=Elohopea
TTITLE1=Taikatyttö
TTITLE2=Kelju Kukko
TTITLE3=Olio
TTITLE4=Katkera kuu
TTITLE5=If I Had a Rope...
TTITLE6=Loch Lomond
TTITLE7=Jääkristalli
TTITLE8=Kruuna
TTITLE9=Vasarankylä-Norrby
TTITLE10=Leonid B.
TTITLE11=Psalm
EXTD=YEAR: 2000
EXTT0=
EXTT1=
EXTT2=
EXTT3=
EXTT4=
EXTT5=
EXTT6=
EXTT7=
EXTT8=
EXTT9=
EXTT10=
EXTT11=
PLAYORDER=
